<svg width="171" height="48" viewBox="0 0 171 48" fill="none" xmlns="http://www.w3.org/2000/svg">
<path d="M10.469 33.3481C4.031 33.3481 0 29.0851 0 22.2991C0 15.6001 4.263 11.1921 10.672 11.1921C16.037 11.1921 19.894 14.2661 20.561 19.0801H15.602C14.964 16.9341 13.137 15.7161 10.556 15.7161C7.076 15.7161 4.959 18.1811 4.959 22.2701C4.959 26.3011 7.105 28.8241 10.556 28.8241C13.195 28.8241 15.138 27.5191 15.718 25.4021H20.59C19.836 30.1871 15.834 33.3481 10.469 33.3481Z" fill="#0C111D"/>
<path d="M30.4024 23.0649C25.7624 23.0649 22.3984 26.1389 22.3984 30.7209C22.3984 31.5545 22.5098 32.3373 22.7199 33.0601H27.6206C27.1558 32.4467 26.8934 31.6389 26.8934 30.6919C26.8934 28.5169 28.3144 27.0669 30.4024 27.0669C32.4614 27.0669 33.8824 28.5169 33.8824 30.6919C33.8824 31.6389 33.6201 32.4467 33.1576 33.0601H38.0562C38.2661 32.3373 38.3774 31.5545 38.3774 30.7209C38.3774 26.1389 35.0134 23.0649 30.4024 23.0649Z" fill="#0C111D"/>
<path d="M56.2484 39.9601V18.5001H60.4534L60.6854 20.2691C61.4974 18.9351 63.3244 18.0361 65.3834 18.0361C69.4144 18.0361 72.2274 20.8491 72.2274 25.5181C72.2274 30.1001 69.7334 33.4061 65.4124 33.4061C63.4114 33.4061 61.5554 32.6521 60.7144 31.5501V39.9601H56.2484ZM60.7434 25.7501C60.7434 27.9251 62.1934 29.3751 64.2814 29.3751C66.3984 29.3751 67.7324 27.8961 67.7324 25.7501C67.7324 23.6041 66.3984 22.1251 64.2814 22.1251C62.1934 22.1251 60.7434 23.5751 60.7434 25.7501Z" fill="#0C111D"/>
<path d="M81.5262 33.3771C77.1472 33.3771 74.0152 30.1871 74.0152 25.7211C74.0152 21.1971 77.0602 18.0361 81.4392 18.0361C85.9922 18.0361 88.8342 21.0231 88.8342 25.7501V26.8811L78.3072 26.9391C78.5682 28.8531 79.6412 29.7521 81.6132 29.7521C83.2952 29.7521 84.4842 29.1431 84.8032 28.0991H88.8922C88.3702 31.3181 85.4992 33.3771 81.5262 33.3771ZM81.4682 21.6611C79.6992 21.6611 78.7132 22.4441 78.3652 24.1841H84.3972C84.3972 22.6471 83.2662 21.6611 81.4682 21.6611Z" fill="#0C111D"/>
<path d="M101.455 18.5001V22.7051H100.034C97.4818 22.7051 95.9448 23.8361 95.9448 26.7071V33.0001H91.4788V18.5291H95.6838L95.9158 20.6751C96.5248 19.2541 97.8008 18.2971 99.7438 18.2971C100.266 18.2971 100.846 18.3551 101.455 18.5001Z" fill="#0C111D"/>
<path d="M114.395 18.5001H118.484V33.0001H114.279L114.047 31.1441C113.206 32.2461 111.611 33.4061 109.32 33.4061C104.999 33.4061 102.505 30.1001 102.505 25.5181C102.505 20.8491 105.318 18.0361 109.349 18.0361C111.408 18.0361 113.351 18.9351 114.163 20.2691L114.395 18.5001ZM113.989 25.7501C113.989 23.5751 112.539 22.1251 110.451 22.1251C108.334 22.1251 107 23.6041 107 25.7501C107 27.8961 108.334 29.3751 110.451 29.3751C112.539 29.3751 113.989 27.9251 113.989 25.7501Z" fill="#0C111D"/>
<path d="M130.393 29.1141L130.915 32.7101C130.074 33.1161 128.972 33.3481 127.754 33.3481C124.767 33.3481 122.679 31.9851 122.679 27.9251V22.2121H120.475V18.5001H122.679V14.0051H127.145V18.5001H130.364V22.2121H127.145V26.9971C127.145 28.8241 127.87 29.3751 128.914 29.3751C129.349 29.3751 129.871 29.2881 130.393 29.1141Z" fill="#0C111D"/>
<path d="M134.974 16.2381C133.553 16.2381 132.422 15.1071 132.422 13.6861C132.422 12.2651 133.553 11.1631 134.974 11.1631C136.366 11.1631 137.497 12.2651 137.497 13.6861C137.497 15.1071 136.366 16.2381 134.974 16.2381ZM132.77 33.0001V18.5001H137.236V33.0001H132.77Z" fill="#0C111D"/>
<path d="M144.704 33.0001L139.049 18.5001H143.863L145.632 23.5751C146.357 25.6921 146.937 27.5191 147.053 28.1861C147.227 27.3451 147.865 25.4601 148.59 23.5751L150.533 18.5001H155.173L149.112 33.0001H144.704Z" fill="#0C111D"/>
<path d="M163.004 33.3771C158.625 33.3771 155.493 30.1871 155.493 25.7211C155.493 21.1971 158.538 18.0361 162.917 18.0361C167.47 18.0361 170.312 21.0231 170.312 25.7501V26.8811L159.785 26.9391C160.046 28.8531 161.119 29.7521 163.091 29.7521C164.773 29.7521 165.962 29.1431 166.281 28.0991H170.37C169.848 31.3181 166.977 33.3771 163.004 33.3771ZM162.946 21.6611C161.177 21.6611 160.191 22.4441 159.843 24.1841H165.875C165.875 22.6471 164.744 21.6611 162.946 21.6611Z" fill="#0C111D"/>
<path d="M38.01 18.5298C37.7944 19.2623 37.68 20.0558 37.68 20.9006C37.68 25.4826 41.044 28.5276 45.684 28.5276C50.295 28.5276 53.659 25.4826 53.659 20.9006C53.659 20.0558 53.5446 19.2623 53.3292 18.5298H48.4411C48.9024 19.1388 49.164 19.9385 49.164 20.8716C49.164 23.0756 47.743 24.5256 45.684 24.5256C43.596 24.5256 42.175 23.0756 42.175 20.8716C42.175 19.9385 42.4366 19.1388 42.9002 18.5298H38.01Z" fill="#0C111D"/>
</svg>
